
        <svg xmlns="http://www.w3.org/2000/svg" xmlns:xlink="http://www.w3.org/1999/xlink" version="1.1" width="3171.4285714285716" 
        height="1376.5893347188085" viewBox="0 0 3171.4285714285716 1376.5893347188085">
			<rect fill="#262833" width="3171.4285714285716" height="1376.5893347188085"/>
			<g transform="scale(8.571428571428573) translate(10, 10)">
				<defs id="SvgjsDefs2624"></defs><g id="SvgjsG2625" featureKey="mugSzh-0" transform="matrix(0.09152436516021183,0,0,0.09152436516021183,129.5586868027331,-6.2589406914561225)" fill="#34938d"><g xmlns="http://www.w3.org/2000/svg"><g><path d="M633.7,181.2c1.2,12.1-1.4,22.3-11.4,27.9c-7.4,4.2-14.7,0.7-21.5-4.1c-4.9-3.4-9.8-6.8-15-9.8    c-47.5-27.5-95.2-57.3-142.6-84.8c-22.8-13.2-21.4-12.6-1.5-27.7c27.2-20.8,48.5-17.2,78.7-0.3c29.6,16.6,51.7,29.1,78.3,45.1    C620.9,138.7,632.5,151.4,633.7,181.2z"></path></g><g><path d="M842.8,457.4c-9.9,7.1-20.1,9.9-29.9,4c-7.3-4.4-7.9-12.5-7.2-20.7c0.5-6,1-11.9,1-17.9    c0.2-54.9,2.3-111.1,2.6-165.8c0.1-26.3,0.3-24.8,23.3-15.1c31.6,13.3,39.1,33.5,39.4,68.1c0.4,33.9,0.6,59.3-0.2,90.3    C873.3,425.2,868.1,441.5,842.8,457.4z"></path></g><g><path d="M707.4,776.3c-11-5.1-18.5-12.5-18.3-23.9c0.2-8.5,6.9-13.1,14.3-16.5c5.4-2.5,10.8-5.1,16-8    c47.7-27.2,97.5-53.3,145.1-80.3c22.9-13,21.7-12.1,24.7,12.6c4.2,34-9.6,50.5-39.4,68.1c-29.2,17.2-51.2,30-78.4,44.8    C750.5,786.7,733.7,790.3,707.4,776.3z"></path></g><g><path d="M363.4,817.6c-1.1-12.1,1.6-22.3,11.6-27.8c7.5-4.1,14.7-0.6,21.5,4.2c4.9,3.5,9.8,6.8,14.9,9.9    c47.3,27.8,94.8,58,141.9,85.9c22.7,13.4,21.3,12.8,1.3,27.7c-27.4,20.6-48.6,16.9-78.7-0.3c-29.5-16.8-51.5-29.4-77.9-45.7    C375.9,860.2,364.4,847.4,363.4,817.6z"></path></g><g><path d="M156.3,539.8c9.9-7,20.1-9.7,29.9-3.8c7.3,4.4,7.8,12.5,7,20.7c-0.6,6-1.1,11.9-1.1,17.9    c-0.6,54.9-3.1,111.1-3.8,165.8c-0.3,26.3-0.5,24.8-23.4,15c-31.5-13.5-38.8-33.8-38.9-68.4c-0.1-33.9-0.1-59.3,0.8-90.3    C125.6,571.9,131,555.5,156.3,539.8z"></path></g><g><path d="M294.2,222c11,5.1,18.4,12.6,18.1,24.1c-0.2,8.5-7,13-14.5,16.4c-5.4,2.5-10.8,5-16,7.9    c-47.9,26.8-97.9,52.6-145.7,79.2c-23,12.8-21.7,11.9-24.6-12.8c-3.9-34,10-50.5,39.9-67.8c29.4-17,51.4-29.6,78.8-44.2    C251.1,211.3,268,207.8,294.2,222z"></path></g><g><path d="M729.8,111.2c-40,0-72.5,32.5-72.5,72.5c0,27.2,15.1,51,37.3,63.4c-0.4,64-0.6,127.9-0.3,191.9    c0.1,17.5-7.1,25.5-21.2,36.7c-8.2,6.6-14.8,12.4-20,18c-4.7,5-11.8,7.1-18.5,5.5l-46.7-10.8c5.9,20.4,0.8,42.7-13.3,58.6l60,13.9    c2.2,0.5,4.3,0.5,6.4,0.2c2.8,1.1,6.7-0.4,11.5-3.1c14.7-8.5,62.9-35.4,72.5-41.3c21.3-13,30.8-24.9,30.2-50.3    c-1.5-71.5-1.8-143.2,0.3-214.7c27.4-10.4,46.8-36.9,46.8-67.8C802.4,143.7,769.8,111.2,729.8,111.2z M755.7,223.6    c-7.4,4.8-16.3,7.7-25.9,7.7c-13.9,0-26.3-5.9-35-15.4c-7.8-8.5-12.5-19.8-12.5-32.1c0-26.3,21.3-47.5,47.5-47.5    c26.3,0,47.5,21.3,47.5,47.5C777.4,200.4,768.8,215.1,755.7,223.6z"></path></g><g><path d="M552.6,528.3l-8.1,8.6l-1.9,2.1l-10.1,10.7c-8.1,8.7-20.3,12.4-31.8,9.7l-11.8-2.7l-2-0.5l-15.2-3.5    c-11.7-2.7-21-11.5-24.4-23l-3.2-10.8l-0.6-2.2l-4.5-15.3c-3.2-11.3-0.4-23.5,7.6-32.1l8.1-8.6l1.9-2l10.2-10.9    c6.3-6.8,15.2-10.5,24.3-10.5c2.5,0,5,0.2,7.4,0.8l11.7,2.7l2.2,0.5l15,3.5c11.7,2.7,21.1,11.5,24.4,23l3.2,11l0.6,2.2l4.5,15.3    C563.5,507.5,560.6,519.8,552.6,528.3z"></path></g></g><path xmlns="http://www.w3.org/2000/svg" d="M888.8,473.5c-38.9,0-70.8,30.8-72.5,69.4c-55.8,31.6-111.5,63.3-167,95.5c-15.1,8.8-25.6,6.5-42.3-0.2  c-10.5-4.2-19.3-7.1-27.1-8.8c-7.1-1.5-12.7-6.7-14.7-13.6L552,570.9c-11.7,11.8-27.6,18.2-43.9,18.2c-4.6,0-9.4-0.5-13.9-1.6  l17.4,59.4c1.1,3.7,3.5,6.7,6.5,8.6c1.4,2,4,3.8,7.4,5.8c14.7,8.6,62,36.9,71.9,42.3c21.9,12,36.9,14.3,58.7,1.2  c60.4-36.5,121.6-71.9,183.8-105.3c12.9,11.8,30.1,19,48.9,19c40,0,72.5-32.5,72.5-72.5S928.8,473.5,888.8,473.5z M888.8,593.6  c-9.2,0-17.8-2.6-25.1-7.2c-13.5-8.4-22.5-23.3-22.5-40.4c0-7,1.5-13.7,4.3-19.7c7.5-16.4,24.1-27.9,43.3-27.9  c26.3,0,47.5,21.3,47.5,47.5C936.4,572.3,915.1,593.6,888.8,593.6z"></path><path xmlns="http://www.w3.org/2000/svg" d="M657.7,785c-13.9,0-26.9,3.9-38,10.8c-55-32.6-110.2-65-165.6-97c-15.1-8.7-18.3-19-20.9-36.9  c-1.6-11-3.5-20-5.8-27.5c-2.1-6.8-0.5-14.2,4.3-19.4l32.4-34.5c-20.7-5.2-37.4-20.7-43.9-41l-42,44.9c-2.4,2.5-3.8,5.6-4,8.8v0.1  c-1.1,2.2-1.4,5.4-1.4,9.3c-0.1,17-1.2,72.2-0.9,83.5c0.6,25,6,39.2,28.2,51.5c62.8,35,125.1,71,186.1,109.1  c-0.5,3.6-0.8,7.2-0.8,10.9c0,40,32.6,72.5,72.5,72.5c40,0,72.5-32.5,72.5-72.5S697.7,785,657.7,785z M657.7,905  c-25.1,0-45.7-19.5-47.4-44.2c-0.1-1.1-0.1-2.2-0.1-3.3c0-22.3,15.3-41,36-46.1c3.7-0.9,7.5-1.4,11.5-1.4  c26.3,0,47.5,21.3,47.5,47.5C705.3,883.8,684,905,657.7,905z"></path><path xmlns="http://www.w3.org/2000/svg" d="M424.7,450.5l-60.1-14c-3.7-0.8-7.4-0.3-10.5,1.3c-1.9,0.5-4.2,1.6-6.7,3c-14.8,8.4-63.2,34.9-72.9,40.8  c-21.3,12.9-30.9,24.7-30.6,50.1c1,73,0.7,146.1-2.1,219.1c-24.8,11.5-42,36.7-42,65.8c0,40,32.5,72.5,72.5,72.5  s72.5-32.5,72.5-72.5c0-29.1-17.3-54.3-42.1-65.8c0.9-63.8,1.6-127.6,1.7-191.4c0.1-17.5,7.4-25.4,21.5-36.5  c8.7-6.8,15.7-12.9,21-18.8c4.7-5,11.8-7.1,18.5-5.6l45.5,10.5C405.4,488.6,410.5,466.3,424.7,450.5z M320,816.5  c0,26.3-21.3,47.5-47.5,47.5c-26.3,0-47.5-21.3-47.5-47.5c0-14.8,6.8-28.1,17.4-36.8c8.2-6.7,18.7-10.8,30.1-10.8  c11.4,0,21.9,4,30.1,10.7C313.2,788.4,320,801.7,320,816.5z"></path><path xmlns="http://www.w3.org/2000/svg" d="M487.5,350.6c-1.3-4.5-4.6-8-8.5-9.8h-0.1c-1.1-0.8-2.3-1.6-3.7-2.4c-14.6-8.7-61.7-37.4-71.6-42.9  c-21.9-12.1-36.8-14.6-58.7-1.6c-64.1,38-129.1,74.9-195.2,109.4c-11.4-7.5-25-11.8-39.6-11.8c-40,0-72.5,32.5-72.5,72.5  s32.5,72.5,72.5,72.5s72.5-32.5,72.5-72.5c0-3-0.2-5.9-0.5-8.8c56.5-31.4,112.8-62.9,169-94.9c15.2-8.7,25.7-6.3,42.3,0.5  c10.4,4.2,19.1,7.1,26.8,8.9c6.9,1.6,12.2,6.8,14.2,13.5l12.6,43.3c15.1-15.1,36.9-21.4,57.8-16.7L487.5,350.6z M110.2,511.6  c-26.3,0-47.5-21.3-47.5-47.5s21.3-47.5,47.5-47.5c5.3,0,10.5,0.9,15.3,2.5h0c18.8,6.4,32.3,24.1,32.3,45c0,1.7-0.1,3.3-0.3,5  C155,493,134.7,511.6,110.2,511.6z"></path><path xmlns="http://www.w3.org/2000/svg" d="M626.4,312.9c-0.7-25-6.3-39.1-28.6-51.3c-65.4-35.7-130.4-72.7-193.8-111.9c0.1-1.2,0.1-2.4,0.1-3.6  c0-40-32.6-72.5-72.5-72.5c-40,0-72.5,32.5-72.5,72.5s32.5,72.5,72.5,72.5c16.5,0,31.7-5.5,43.8-14.8c56,32.6,112.1,65.1,168.5,97.1  c15.2,8.6,18.5,18.9,21.3,36.7c1.7,10.8,3.5,19.5,5.8,27c2.1,6.7,0.4,13.9-4.5,19l-31.3,33.4c20.7,5.2,37.4,20.8,43.8,41.1  l42.1-44.9c2.3-2.5,3.6-5.3,4-8.4v-0.1c0.7-2.2,1-5,1-8.3C626,379.4,626.7,324.2,626.4,312.9z M350.8,189.5  c-5.9,2.6-12.4,4.1-19.3,4.1c-26.3,0-47.5-21.3-47.5-47.5c0-26.3,21.3-47.5,47.5-47.5c23.1,0,42.4,16.5,46.6,38.3  c0.6,3,0.9,6.1,0.9,9.2C379,165.4,367.4,182.1,350.8,189.5z"></path></g><g id="SvgjsG2626" featureKey="PPkF4s-0" transform="matrix(1.6003657085701222,0,0,1.6003657085701222,-2.4965685060111387,91.60631060955336)" fill="#5588b2"><path d="M1.56 20 l0 -14.62 l6.5 0 q1.56 0 2.76 0.64 t1.86 1.8 t0.66 2.64 q0 1.58 -0.8 2.82 t-2.18 1.82 q1.42 1.8 3.78 4.9 l-3.78 0 q-1.28 -1.6 -3.5 -4.56 l-2.16 0 l0 4.56 l-3.14 0 z M8.06 12.7 q0.82 0 1.48 -0.59 t0.66 -1.65 q0 -0.86 -0.46 -1.6 t-1.68 -0.74 l-3.36 0 l0 4.58 l3.36 0 z M15.3 11.62 l0 -2.58 l10.46 0 l-6 8.36 l5.38 0 l0 2.6 l-10.66 0 l5.98 -8.38 l-5.16 0 z M27.459999999999997 20 l0 -14.62 l6.5 0 q1.56 0 2.76 0.64 t1.86 1.8 t0.66 2.64 q0 1.58 -0.8 2.82 t-2.18 1.82 q1.42 1.8 3.78 4.9 l-3.78 0 q-1.28 -1.6 -3.5 -4.56 l-2.16 0 l0 4.56 l-3.14 0 z M33.96 12.7 q0.82 0 1.48 -0.59 t0.66 -1.65 q0 -0.86 -0.46 -1.6 t-1.68 -0.74 l-3.36 0 l0 4.58 l3.36 0 z M54.44 4.92 l8.02 15.08 l-3.46 0 l-1.16 -2.24 l-6.82 0 l-1.12 2.24 l-3.48 0 z M56.31999999999999 15.059999999999999 l-1.88 -3.82 l-1.86 3.82 l3.74 0 z M63.94 15.54 l0 -6.5 l3.02 0 l0 6.5 q0 1.18 0.59 1.69 t1.55 0.51 q0.84 0 1.5 -0.65 t0.6 -2.23 l0 -5.82 l3 0 l0 10.96 l-3 0 l0 -0.94 q-0.54 0.56 -1.31 0.87 t-1.63 0.31 q-4.32 0 -4.32 -4.7 z M80.82 16.08 q0 0.7 0.24 1.17 t1.12 0.47 q0.4 0 0.76 -0.04 l0 2.52 q-0.72 0.08 -1.34 0.08 q-1.28 0 -2.07 -0.21 t-1.23 -0.81 t-0.44 -1.72 l0 -6.1 l-1.34 0 l0 -2.62 l1.34 0 l0 -2.94 l2.96 0 l0 2.94 l2.2 0 l0 2.62 l-2.2 0 l0 4.64 z M87.77 19.49 q-1.37 -0.77 -2.17 -2.09 t-0.8 -2.88 q0 -1.54 0.8 -2.86 t2.17 -2.09 t2.99 -0.77 t3 0.77 t2.19 2.09 t0.81 2.86 q0 1.56 -0.81 2.88 t-2.19 2.09 t-3 0.77 t-2.99 -0.77 z M89.24 11.83 q-0.7 0.41 -1.1 1.12 t-0.4 1.57 q0 0.9 0.39 1.61 t1.08 1.12 t1.55 0.41 q0.84 0 1.53 -0.41 t1.09 -1.13 t0.4 -1.6 q0 -0.86 -0.4 -1.57 t-1.09 -1.12 t-1.53 -0.41 q-0.82 0 -1.52 0.41 z M115.60999999999999 10.04 q1.13 1.24 1.13 3.46 l0 6.5 l-3.02 0 l0 -6.5 q0 -1.18 -0.59 -1.7 t-1.55 -0.52 q-0.8 0 -1.44 0.6 t-0.66 2 l0 6.12 l-3.02 0 l0 -6.5 q0 -1.18 -0.59 -1.7 t-1.53 -0.52 q-0.86 0 -1.49 0.64 t-0.63 2.26 l-0.02 5.82 l-2.98 0 l0 -11 l2.98 0 l0 1 q0.58 -0.52 1.4 -0.86 t1.5 -0.34 q2.32 0 3.54 1.5 q0.62 -0.7 1.54 -1.1 t2 -0.4 q2.3 0 3.43 1.24 z M128.18 18.9 q-0.38 0.52 -1.31 0.93 t-2.03 0.41 q-1.7 0 -2.95 -0.76 t-1.91 -2.07 t-0.66 -2.91 t0.66 -2.91 t1.91 -2.07 t2.95 -0.76 q1.14 0 2.01 0.39 t1.33 0.99 l0 -1.14 l2.96 0 l0 11 l-2.96 0 l0 -1.1 z M127.47999999999999 12.25 q-0.82 -0.87 -2.2 -0.87 q-1.4 0 -2.21 0.87 t-0.81 2.25 q0 1.34 0.83 2.22 t2.19 0.88 q1.4 0 2.21 -0.83 t0.81 -2.27 q0 -1.38 -0.82 -2.25 z M137.8 16.08 q0 0.7 0.24 1.17 t1.12 0.47 q0.4 0 0.76 -0.04 l0 2.52 q-0.72 0.08 -1.34 0.08 q-1.28 0 -2.07 -0.21 t-1.23 -0.81 t-0.44 -1.72 l0 -6.1 l-1.34 0 l0 -2.62 l1.34 0 l0 -2.94 l2.96 0 l0 2.94 l2.2 0 l0 2.62 l-2.2 0 l0 4.64 z M145.1 7.369999999999999 q-0.48 0.47 -1.16 0.47 q-0.7 0 -1.19 -0.47 t-0.49 -1.15 q0 -0.66 0.49 -1.13 t1.19 -0.47 q0.68 0 1.16 0.47 t0.48 1.13 q0 0.68 -0.48 1.15 z M142.44 9.02 l3 0 l0 10.98 l-3 0 l0 -10.98 z M150.85 19.49 q-1.37 -0.77 -2.17 -2.09 t-0.8 -2.88 q0 -1.54 0.8 -2.86 t2.17 -2.09 t2.99 -0.77 t3 0.77 t2.19 2.09 t0.81 2.86 q0 1.56 -0.81 2.88 t-2.19 2.09 t-3 0.77 t-2.99 -0.77 z M152.32 11.83 q-0.7 0.41 -1.1 1.12 t-0.4 1.57 q0 0.9 0.39 1.61 t1.08 1.12 t1.55 0.41 q0.84 0 1.53 -0.41 t1.09 -1.13 t0.4 -1.6 q0 -0.86 -0.4 -1.57 t-1.09 -1.12 t-1.53 -0.41 q-0.82 0 -1.52 0.41 z M171.48999999999998 10.02 q1.03 1.22 1.03 3.48 l0 6.5 l-3.06 0 l0 -6.5 q0 -2.22 -2.12 -2.22 q-0.82 0 -1.48 0.65 t-0.62 2.25 l0 5.82 l-2.98 0 l0 -11 l2.98 0 l0 0.98 q0.54 -0.54 1.36 -0.86 t1.58 -0.32 q2.28 0 3.31 1.22 z M192.43999999999997 20 l-10.84 0 l0 -14.62 l3.18 0 l0 11.88 l7.66 0 l0 2.74 z M205.19999999999996 20 l-10.84 0 l0 -14.62 l3.18 0 l0 11.88 l7.66 0 l0 2.74 z M217.34999999999997 19.18 q-1.85 1.1 -4.03 1.1 q-2.14 0 -3.95 -1.02 t-2.87 -2.76 t-1.06 -3.8 q0 -2.04 1.06 -3.78 t2.87 -2.76 t3.95 -1.02 q2.16 0 4.02 1.09 t2.92 2.91 l-2.94 1.14 q-0.7 -1 -1.77 -1.64 t-2.23 -0.64 q-1.28 0 -2.36 0.65 t-1.71 1.73 t-0.63 2.32 t0.63 2.33 t1.71 1.74 t2.36 0.65 q1.16 0 2.23 -0.65 t1.77 -1.67 l2.94 1.14 q-1.06 1.84 -2.91 2.94 z"></path></g><g id="SvgjsG2627" featureKey="uwAHB0-0" transform="matrix(0.5290135651194559,0,0,0.5290135651194559,22.407504867607006,129.94775642415937)" fill="#558ea1"><path d="M1.12 7.76 l3 0 l0 12.24 l-3 0 l0 -12.24 z M23.744 7.76 l3 0 l0 12.24 l-3 0 l-4.8 -7.16 l0 7.16 l-3 0 l0 -12.24 l3 0 l4.8 7.16 l0 -7.16 z M46.408 7.76 l3 0 l0 12.24 l-3 0 l-4.8 -7.16 l0 7.16 l-3 0 l0 -12.24 l3 0 l4.8 7.16 l0 -7.16 z M67.152 17.32 c2.18 0 3.3 -1.4 3.3 -3.44 c0 -2.16 -1.2 -3.44 -3.3 -3.44 c-2.2 0 -3.3 1.4 -3.3 3.44 c0 2.12 1.22 3.44 3.3 3.44 z M67.152 20.1 c-3.76 0 -6.3 -2.56 -6.3 -6.22 c0 -3.78 2.66 -6.22 6.3 -6.22 c3.78 0 6.3 2.54 6.3 6.22 c0 3.8 -2.64 6.22 -6.3 6.22 z M92.696 7.76 l3.28 0 l-4.9 12.24 l-3 0 l-4.9 -12.24 l3.26 0 l3.14 8.82 z M113.26 17.52 l-4.5 0 l-0.88 2.48 l-3.26 0 l4.9 -12.24 l3 0 l4.9 12.24 l-3.28 0 z M109.74000000000001 14.74 l2.54 0 l-1.26 -3.56 z M126.084 7.76 l10.2 0 l0 2.78 l-3.6 0 l0 9.46 l-3 0 l0 -9.46 l-3.6 0 l0 -2.78 z M147.328 7.76 l3 0 l0 12.24 l-3 0 l0 -12.24 z M168.032 17.32 c2.18 0 3.3 -1.4 3.3 -3.44 c0 -2.16 -1.2 -3.44 -3.3 -3.44 c-2.2 0 -3.3 1.4 -3.3 3.44 c0 2.12 1.22 3.44 3.3 3.44 z M168.032 20.1 c-3.76 0 -6.3 -2.56 -6.3 -6.22 c0 -3.78 2.66 -6.22 6.3 -6.22 c3.78 0 6.3 2.54 6.3 6.22 c0 3.8 -2.64 6.22 -6.3 6.22 z M193.55599999999998 7.76 l3 0 l0 12.24 l-3 0 l-4.8 -7.16 l0 7.16 l-3 0 l0 -12.24 l3 0 l4.8 7.16 l0 -7.16 z M222.38399999999996 7.76 l9.1 0 l0 2.78 l-6.1 0 l0 1.96 l4.9 0 l0 2.78 l-4.9 0 l0 1.94 l6.1 0 l0 2.78 l-9.1 0 l0 -12.24 z M250.54799999999997 7.76 l3 0 l0 12.24 l-3 0 l-4.8 -7.16 l0 7.16 l-3 0 l0 -12.24 l3 0 l4.8 7.16 l0 -7.16 z M276.23199999999997 12.5 l0 6.8 c-1.42 0.54 -3.2 0.84 -4.72 0.84 c-3.9 0 -6.52 -2.34 -6.52 -6.2 c0 -4.22 3.14 -6.28 6.98 -6.28 c0.26 0 0.54 0 0.86 0.02 c0.3 0.02 0.62 0.06 0.96 0.08 c0.62 0.08 1.24 0.16 1.84 0.34 l0 3.06 c-0.22 -0.1 -0.46 -0.18 -0.74 -0.26 c-0.3 -0.06 -0.6 -0.12 -0.92 -0.18 c-0.64 -0.12 -1.32 -0.16 -1.98 -0.16 c-2.54 0 -4 0.78 -4 3.38 c0 2.54 1.34 3.3 3.62 3.3 c0.24 0 0.5 -0.02 0.78 -0.04 c0.26 -0.02 0.54 -0.04 0.84 -0.06 l0 -1.86 l-2.6 0 l0 -2.78 l5.6 0 z M287.676 7.76 l3 0 l0 12.24 l-3 0 l0 -12.24 z M310.29999999999995 7.76 l3 0 l0 12.24 l-3 0 l-4.8 -7.16 l0 7.16 l-3 0 l0 -12.24 l3 0 l4.8 7.16 l0 -7.16 z M325.16399999999993 7.76 l9.1 0 l0 2.78 l-6.1 0 l0 1.96 l4.9 0 l0 2.78 l-4.9 0 l0 1.94 l6.1 0 l0 2.78 l-9.1 0 l0 -12.24 z M345.5279999999999 7.76 l9.1 0 l0 2.78 l-6.1 0 l0 1.96 l4.9 0 l0 2.78 l-4.9 0 l0 1.94 l6.1 0 l0 2.78 l-9.1 0 l0 -12.24 z M368.8919999999999 10.58 l0 2.92 l2.8 0 c0.92 0 1.46 -0.54 1.46 -1.46 s-0.54 -1.46 -1.46 -1.46 l-2.8 0 z M373.4319999999999 15.48 c0.56 0.76 1.12 1.52 1.7 2.26 c0.56 0.74 1.12 1.5 1.68 2.26 l-3.66 0 c-0.72 -0.96 -1.42 -1.92 -2.12 -2.88 c-0.7 -0.94 -1.42 -1.9 -2.14 -2.86 l0 5.74 l-3 0 l0 -12.24 l5.8 0 c2.28 0 4.22 1.74 4.22 4.04 c0 1.62 -1 3.04 -2.48 3.68 z M387.63599999999985 7.76 l9.1 0 l0 2.78 l-6.1 0 l0 1.96 l4.9 0 l0 2.78 l-4.9 0 l0 1.94 l6.1 0 l0 2.78 l-9.1 0 l0 -12.24 z M412.29999999999984 20 l-4.3 0 l0 -12.24 l4.3 0 c3.74 0 6.3 2.44 6.3 6.12 c0 3.78 -2.7 6.12 -6.3 6.12 z M410.99999999999983 10.54 l0 6.68 l1.3 0 c2.12 0 3.3 -1.34 3.3 -3.34 c0 -0.46 -0.06 -0.88 -0.18 -1.3 c-0.52 -1.46 -1.66 -2.04 -3.12 -2.04 l-1.3 0 z M453.00799999999987 13.719999999999999 c0.88 0.62 1.4 1.54 1.4 2.62 c0 2.08 -1.92 3.66 -3.92 3.66 l-6.5 0 l0 -12.24 l6.1 0 c1.6 0 2.92 0.86 3.62 2.28 c0.2 0.46 0.3 0.92 0.3 1.4 c0 0.9 -0.36 1.64 -1 2.28 z M446.98799999999983 10.54 l0 1.96 l3.1 0 c0.52 0 0.92 -0.5 0.92 -1 c0 -0.52 -0.38 -0.96 -0.92 -0.96 l-3.1 0 z M446.98799999999983 15.280000000000001 l0 1.94 l3.5 0 c0.54 0 0.92 -0.44 0.92 -0.96 c0 -0.26 -0.1 -0.5 -0.28 -0.7 c-0.18 -0.18 -0.4 -0.28 -0.64 -0.28 l-3.5 0 z M468.87199999999984 20 l0 -4.54 c-2.42 -0.54 -3.82 -2.54 -3.82 -4.94 l0 -2.76 l3 0 l0 2.76 c0 1.44 0.86 2.32 2.3 2.32 c1.48 0 2.3 -0.86 2.3 -2.32 l0 -2.76 l3 0 l0 2.76 c0 2.44 -1.42 4.38 -3.78 4.94 l0 4.54 l-3 0 z M510.49999999999983 16.58 l0 3.08 c-1.24 0.34 -2.48 0.48 -3.76 0.48 c-3.76 0 -6.28 -2.58 -6.28 -6.24 c0 -3.76 2.62 -6.24 6.26 -6.24 c1.26 0 2.58 0.1 3.78 0.48 l0 3.08 c-0.98 -0.48 -2.52 -0.66 -3.6 -0.66 c-2.44 0 -3.44 1 -3.44 3.32 c0 2.46 1.18 3.36 3.46 3.36 c1.02 0 2.68 -0.16 3.58 -0.66 z M527.5839999999998 17.32 c2.18 0 3.3 -1.4 3.3 -3.44 c0 -2.16 -1.2 -3.44 -3.3 -3.44 c-2.2 0 -3.3 1.4 -3.3 3.44 c0 2.12 1.22 3.44 3.3 3.44 z M527.5839999999998 20.1 c-3.76 0 -6.3 -2.56 -6.3 -6.22 c0 -3.78 2.66 -6.22 6.3 -6.22 c3.78 0 6.3 2.54 6.3 6.22 c0 3.8 -2.64 6.22 -6.3 6.22 z M549.608 20 l-4.3 0 l0 -12.24 l4.3 0 c3.74 0 6.3 2.44 6.3 6.12 c0 3.78 -2.7 6.12 -6.3 6.12 z M548.3079999999999 10.54 l0 6.68 l1.3 0 c2.12 0 3.3 -1.34 3.3 -3.34 c0 -0.46 -0.06 -0.88 -0.18 -1.3 c-0.52 -1.46 -1.66 -2.04 -3.12 -2.04 l-1.3 0 z M567.3319999999999 7.76 l9.1 0 l0 2.78 l-6.1 0 l0 1.96 l4.9 0 l0 2.78 l-4.9 0 l0 1.94 l6.1 0 l0 2.78 l-9.1 0 l0 -12.24 z"></path></g>
			</g>
		</svg>
	